<svg width="11" height="20" viewBox="0 0 11 20" fill="none" xmlns="http://www.w3.org/2000/svg">
<path d="M1.54438 19.9377C1.18417 19.9383 0.835077 19.8274 0.557713 19.6242C0.401606 19.5097 0.272566 19.3692 0.177982 19.2106C0.0833974 19.052 0.0251281 18.8784 0.00651111 18.6998C-0.0121058 18.5213 0.0092956 18.3412 0.0694892 18.17C0.129683 17.9988 0.227485 17.8397 0.357296 17.702L7.26396 10.3949L0.603964 3.07422C0.475904 2.93478 0.380272 2.77433 0.322564 2.6021C0.264857 2.42986 0.246213 2.24924 0.267702 2.07062C0.289192 1.89199 0.350391 1.71888 0.447784 1.56124C0.545177 1.4036 0.676843 1.26453 0.835213 1.15203C0.994723 1.02792 1.18152 0.934313 1.38388 0.877071C1.58625 0.819829 1.79981 0.800193 2.01116 0.819394C2.22251 0.838596 2.42709 0.89622 2.61206 0.988652C2.79704 1.08108 2.95841 1.20633 3.08605 1.35652L10.5323 9.53606C10.759 9.78 10.883 10.086 10.883 10.4017C10.883 10.7175 10.759 11.0235 10.5323 11.2674L2.82396 19.4469C2.66931 19.6119 2.47285 19.7423 2.25052 19.8276C2.0282 19.9129 1.78628 19.9506 1.54438 19.9377Z" fill="black"/>
</svg>
