<svg width="29" height="29" viewBox="0 0 29 29" fill="none" xmlns="http://www.w3.org/2000/svg">
<path d="M14.5 7.5625C13.1279 7.5625 11.7866 7.96938 10.6457 8.73168C9.50486 9.49398 8.61567 10.5775 8.09059 11.8451C7.5655 13.1128 7.42812 14.5077 7.6958 15.8534C7.96349 17.1992 8.62422 18.4353 9.59445 19.4056C10.5647 20.3758 11.8008 21.0365 13.1466 21.3042C14.4923 21.5719 15.8872 21.4345 17.1549 20.9094C18.4225 20.3843 19.506 19.4951 20.2683 18.3543C21.0306 17.2134 21.4375 15.8721 21.4375 14.5C21.4375 12.6601 20.7066 10.8955 19.4056 9.59445C18.1045 8.29341 16.3399 7.5625 14.5 7.5625ZM14.5 19.125C13.5853 19.125 12.6911 18.8537 11.9305 18.3455C11.1699 17.8373 10.5771 17.115 10.2271 16.2699C9.877 15.4248 9.78541 14.4949 9.96387 13.5977C10.1423 12.7005 10.5828 11.8764 11.2296 11.2296C11.8764 10.5828 12.7005 10.1423 13.5977 9.96387C14.4949 9.78541 15.4248 9.877 16.2699 10.2271C17.115 10.5771 17.8373 11.1699 18.3455 11.9305C18.8537 12.6911 19.125 13.5853 19.125 14.5C19.1212 15.7255 18.6327 16.8996 17.7662 17.7662C16.8996 18.6327 15.7255 19.1212 14.5 19.125ZM20.8594 0.046875H8.14062C5.99403 0.046875 3.93535 0.899607 2.41748 2.41748C0.899607 3.93535 0.046875 5.99403 0.046875 8.14062V20.8594C0.046875 23.006 0.899607 25.0646 2.41748 26.5825C3.93535 28.1004 5.99403 28.9531 8.14062 28.9531H20.8594C23.006 28.9531 25.0646 28.1004 26.5825 26.5825C28.1004 25.0646 28.9531 23.006 28.9531 20.8594V8.14062C28.9531 5.99403 28.1004 3.93535 26.5825 2.41748C25.0646 0.899607 23.006 0.046875 20.8594 0.046875ZM26.6406 20.8594C26.6406 21.6186 26.4911 22.3703 26.2006 23.0718C25.91 23.7732 25.4842 24.4105 24.9473 24.9473C24.4105 25.4842 23.7732 25.91 23.0718 26.2006C22.3703 26.4911 21.6186 26.6406 20.8594 26.6406H8.14062C7.38142 26.6406 6.62965 26.4911 5.92824 26.2006C5.22682 25.91 4.5895 25.4842 4.05266 24.9473C3.51583 24.4105 3.08998 23.7732 2.79945 23.0718C2.50891 22.3703 2.35938 21.6186 2.35938 20.8594V8.14062C2.35938 6.60734 2.96847 5.13686 4.05266 4.05266C5.13686 2.96847 6.60734 2.35938 8.14062 2.35938H20.8594C21.6186 2.35938 22.3703 2.50891 23.0718 2.79945C23.7732 3.08998 24.4105 3.51583 24.9473 4.05266C25.4842 4.5895 25.91 5.22682 26.2006 5.92824C26.4911 6.62965 26.6406 7.38142 26.6406 8.14062V20.8594ZM23.75 6.98438C23.75 7.3274 23.6483 7.66272 23.4577 7.94794C23.2671 8.23316 22.9963 8.45546 22.6793 8.58673C22.3624 8.718 22.0137 8.75235 21.6773 8.68542C21.3408 8.6185 21.0318 8.45332 20.7892 8.21076C20.5467 7.96821 20.3815 7.65917 20.3146 7.32274C20.2477 6.9863 20.282 6.63757 20.4133 6.32066C20.5445 6.00374 20.7668 5.73287 21.0521 5.54229C21.3373 5.35172 21.6726 5.25 22.0156 5.25C22.4756 5.25 22.9168 5.43273 23.242 5.75799C23.5673 6.08324 23.75 6.52439 23.75 6.98438Z" fill="#D859B7"/>
</svg>
