<svg width="31" height="25" viewBox="0 0 31 25" fill="none" xmlns="http://www.w3.org/2000/svg">
<path d="M3.16666 24.8334C2.31874 24.8334 1.59313 24.5318 0.989828 23.9285C0.385495 23.3241 0.0833282 22.598 0.0833282 21.7501V3.25008C0.0833282 2.40216 0.385495 1.67655 0.989828 1.07325C1.59313 0.468914 2.31874 0.166748 3.16666 0.166748H27.8333C28.6812 0.166748 29.4074 0.468914 30.0117 1.07325C30.615 1.67655 30.9167 2.40216 30.9167 3.25008V21.7501C30.9167 22.598 30.615 23.3241 30.0117 23.9285C29.4074 24.5318 28.6812 24.8334 27.8333 24.8334H3.16666ZM15.5 14.0417L3.16666 6.33341V21.7501H27.8333V6.33341L15.5 14.0417ZM15.5 10.9584L27.8333 3.25008H3.16666L15.5 10.9584ZM3.16666 6.33341V3.25008V21.7501V6.33341Z" fill="#D859B7"/>
</svg>
