<svg width="66" height="51" viewBox="0 0 66 51" fill="none" xmlns="http://www.w3.org/2000/svg">
<path d="M64.5925 41.5045C65.893 38.9602 65.7482 34.4542 58.0022 27.1543C58.3514 22.5048 57.3985 17.8429 55.2508 13.6932C53.1031 9.5436 49.8459 6.07101 45.8458 3.66639C41.8457 1.26177 37.2616 0.0205827 32.6095 0.0825475C27.9574 0.144512 23.4219 1.50717 19.5137 4.01713C18.6409 4.5864 17.798 5.20032 16.9883 5.85647C6.60405 3.73124 2.87721 6.24893 1.56261 8.77119C0.685765 10.4841 0.444717 13.187 2.9738 17.1251C4.22315 18.9918 5.66543 20.7217 7.27651 22.2859L8.15287 23.1214C7.80371 27.7709 8.75661 32.4328 10.9043 36.5824C13.052 40.7321 16.3092 44.2047 20.3093 46.6093C24.3094 49.0139 28.8935 50.2551 33.5456 50.1931C38.1977 50.1312 42.7332 48.7685 46.6414 46.2585C47.5142 45.6893 48.3571 45.0754 49.1668 44.4192L50.3264 44.6378C59.9151 46.3417 63.3667 43.8765 64.5925 41.5045ZM50.5728 13.9023C53.1345 17.9045 54.269 22.6528 53.7906 27.3693C53.3121 32.0858 51.2491 36.4908 47.9394 39.8626C42.2826 38.4614 35.7755 35.9282 29.2804 32.5483C22.7854 29.1683 16.9542 25.331 12.5747 21.4936C13.2773 17.3524 15.2132 13.5277 18.1285 10.5211C21.0438 7.51456 24.8023 5.46652 28.911 4.64567C33.0198 3.82483 37.2868 4.26951 41.1525 5.92139C45.0181 7.57328 48.3018 10.3552 50.5728 13.9023ZM5.27607 10.7057C5.63273 10.0106 6.81735 9.4984 8.5315 9.3298C10.1726 9.20191 11.8238 9.25662 13.4549 9.49294C11.4339 12.0503 9.93876 14.9852 9.05515 18.1294C5.69135 14.4787 4.69666 11.8236 5.27607 10.7057ZM15.5823 36.3734C13.7122 33.4617 12.5933 30.1324 12.3268 26.6868C16.5832 30.044 21.7436 33.3177 27.371 36.2605C32.6455 39.0233 38.1588 41.2972 43.8417 43.0535C39.2089 45.8349 33.6681 46.693 28.3932 45.4461C23.1182 44.1992 18.5234 40.9452 15.5823 36.3734ZM57.0999 32.1463C58.2506 33.3512 59.2613 34.683 60.1125 36.1157C60.9575 37.624 61.2357 38.8748 60.879 39.5699C60.2996 40.6878 57.5808 41.4084 52.7002 40.7827C54.7212 38.2254 56.2163 35.2905 57.0999 32.1463Z" fill="#61F4AE"/>
</svg>
