<svg width="62" height="68" viewBox="0 0 62 68" fill="none" xmlns="http://www.w3.org/2000/svg">
<path d="M61.995 2.10735L61.931 0.0808361L60.0585 0.00336819C60.0585 0.00336819 59.9573 0 59.764 0C57.0391 0 42.7863 0.716297 29.7766 14.8469C26.2932 18.6282 23.2418 22.5926 20.7711 26.4738C11.3088 22.3107 0 34.5888 0 34.5888C0 34.5888 8.69553 30.6537 14.972 38.8193C14.5091 40.5494 14.3014 42.0471 14.2786 43.3461L12.5674 45.2064C12.0663 45.7509 12.1066 46.6806 12.6077 47.2262L13.02 47.6731L11.84 48.9563C11.5517 49.2696 11.4649 49.7478 11.6715 50.1026C10.8376 49.9286 9.6307 50.5293 7.15689 51.5274C4.02898 52.7882 3.45238 55.6556 3.45238 55.6556C3.45238 55.6556 4.46091 56.1934 5.93858 56.3562C4.04965 59.3247 4.48261 62.4728 4.48261 62.4728C4.48261 62.4728 7.38215 62.9421 10.1133 60.892C10.2631 62.4975 10.7581 63.5921 10.7581 63.5921C10.7581 63.5921 13.4003 62.9645 14.5597 59.5649C15.4918 56.8367 16.0477 55.5265 15.8627 54.6216C16.2027 54.8057 16.6615 54.7709 16.9261 54.4835L18.1072 53.1991L18.6021 53.7369C19.1054 54.2814 19.8783 54.2376 20.3784 53.6908L22.1144 51.808C23.372 51.78 24.7546 51.524 26.2354 51.0581C33.818 57.8786 30.1755 67.3634 30.1755 67.3634C30.1755 67.3634 41.5102 55.0527 37.6362 44.7652C41.1733 42.1156 44.8179 38.8069 48.3281 34.9964C62.3867 19.7296 62.0188 2.81916 61.995 2.10735ZM14.4719 56.656C13.8281 58.5421 12.3649 58.8902 12.3649 58.8902C12.3649 58.8902 11.9857 58.038 11.9888 56.8771C10.4098 58.239 8.62733 57.9695 8.62733 57.9695C8.62733 57.9695 8.38036 56.0328 9.63379 54.3173C8.56326 54.3196 7.77999 53.9087 7.77999 53.9087C7.77999 53.9087 8.10032 52.3189 9.83633 51.6194C11.1714 51.0816 11.8348 50.7617 12.2957 50.8335L15.1983 53.9861C15.2634 54.4857 14.9679 55.2065 14.4719 56.656ZM21.8644 49.6434C21.2072 49.6434 20.613 49.5446 20.0519 49.3919L16.4972 45.5298C15.1001 39.2987 21.1421 27.3069 31.1954 16.3873C36.6462 10.4671 42.3513 7.01365 47.2338 4.99612L57.3977 16.0392C55.5408 21.3407 52.3623 27.5359 46.9104 33.456C37.8211 43.327 27.9197 49.6434 21.8644 49.6434Z" fill="#D859B8"/>
<path d="M41.6032 16.7061C38.8307 16.7061 36.5873 19.1458 36.5873 22.1558C36.5853 25.1636 38.8328 27.6044 41.6032 27.6044C44.3715 27.6044 46.62 25.1636 46.62 22.1558C46.62 19.1447 44.3704 16.7061 41.6032 16.7061ZM41.6032 25.7867C39.7545 25.7867 38.2593 24.1587 38.2593 22.1558C38.2593 20.1495 39.7545 18.5216 41.6032 18.5216C43.4487 18.5216 44.947 20.1484 44.947 22.1558C44.947 24.1587 43.4487 25.7867 41.6032 25.7867Z" fill="#D859B8"/>
<path d="M31.5695 27.6021C28.7991 27.6044 26.5536 30.0429 26.5526 33.0518C26.5536 36.0607 28.7991 38.5004 31.5684 38.5004C34.3378 38.5004 36.5842 36.0607 36.5842 33.0518C36.5853 30.044 34.3388 27.6032 31.5695 27.6021ZM31.5684 36.6827C29.7239 36.6838 28.2246 35.0592 28.2246 33.0518C28.2246 31.0444 29.7198 29.4198 31.5684 29.4198C33.4171 29.4198 34.9123 31.0444 34.9123 33.0529C34.9123 35.0592 33.4171 36.6838 31.5684 36.6827Z" fill="#D859B8"/>
<path d="M46.402 7.57355C46.8637 7.57355 47.2379 7.16722 47.2379 6.66599C47.2379 6.16476 46.8637 5.75844 46.402 5.75844C45.9403 5.75844 45.566 6.16476 45.566 6.66599C45.566 7.16722 45.9403 7.57355 46.402 7.57355Z" fill="#D859B8"/>
<path d="M48.7683 10.1401C49.2294 10.1401 49.6032 9.73426 49.6032 9.23365C49.6032 8.73304 49.2294 8.32722 48.7683 8.32722C48.3072 8.32722 47.9334 8.73304 47.9334 9.23365C47.9334 9.73426 48.3072 10.1401 48.7683 10.1401Z" fill="#D859B8"/>
<path d="M51.1336 12.7111C51.5959 12.7111 51.9706 12.3043 51.9706 11.8025C51.9706 11.3006 51.5959 10.8938 51.1336 10.8938C50.6714 10.8938 50.2966 11.3006 50.2966 11.8025C50.2966 12.3043 50.6714 12.7111 51.1336 12.7111Z" fill="#D859B8"/>
<path d="M53.4969 15.2788C53.9591 15.2788 54.3339 14.872 54.3339 14.3701C54.3339 13.8683 53.9591 13.4614 53.4969 13.4614C53.0346 13.4614 52.6599 13.8683 52.6599 14.3701C52.6599 14.872 53.0346 15.2788 53.4969 15.2788Z" fill="#D859B8"/>
<path d="M56.4553 16.2972C56.1257 15.9427 55.5987 15.9439 55.2711 16.2972C54.9435 16.6506 54.9435 17.2261 55.2711 17.5817C55.5976 17.9351 56.1246 17.934 56.4553 17.5817C56.7818 17.2261 56.7798 16.6517 56.4553 16.2972Z" fill="#D859B8"/>
</svg>
