<svg width="92" height="115" viewBox="0 0 92 115" fill="none" xmlns="http://www.w3.org/2000/svg">
<path d="M18.258 62.0233C20.468 61.9083 22.338 60.95 23.868 59.1483C25.398 57.3467 26.18 55.2 26.18 52.7083C26.18 55.2 26.928 57.3467 28.458 59.1483C29.988 60.95 31.858 61.9083 34.068 62.0233C31.858 62.1383 29.988 63.0967 28.458 64.8983C27.7183 65.7477 27.1359 66.7545 26.7448 67.8602C26.3537 68.9658 26.1617 70.1482 26.18 71.3383C26.18 68.8467 25.432 66.7 23.868 64.8983C22.338 63.0967 20.468 62.1383 18.258 62.0233ZM26.18 34.4233C30.464 34.1933 34.102 32.315 37.094 28.7883C40.086 25.2617 41.582 21.0833 41.582 16.215C41.582 21.0833 43.078 25.2617 46.07 28.7883C49.062 32.315 52.7 34.155 57.018 34.4233C54.196 34.5767 51.612 35.4583 49.232 37.145C46.886 38.7933 45.016 41.0167 43.622 43.7767C42.262 46.5367 41.582 49.4883 41.582 52.7083C41.582 47.84 40.086 43.6233 37.094 40.0967C34.102 36.5317 30.464 34.6533 26.18 34.4233ZM37.468 75.7083C40.698 75.555 43.452 74.1367 45.696 71.4917C47.94 68.8467 49.062 65.7033 49.062 62.0233C49.062 65.7033 50.184 68.8467 52.428 71.4917C54.672 74.1367 57.392 75.555 60.622 75.7083C57.392 75.8617 54.672 77.28 52.428 79.925C50.184 82.57 49.062 85.7133 49.062 89.3933C49.062 85.7133 47.94 82.57 45.696 79.925C43.5512 77.3552 40.5955 75.8404 37.468 75.7083ZM60.622 57.5383C63.852 57.385 66.572 55.9667 68.816 53.3217C71.06 50.6767 72.148 47.5333 72.148 43.815C72.148 47.495 73.27 50.6383 75.514 53.2833C77.758 55.9283 80.512 57.3467 83.742 57.5C80.512 57.6533 77.758 59.0717 75.514 61.7167C73.27 64.3617 72.148 67.505 72.148 71.185C72.148 67.505 71.026 64.3617 68.816 61.7167C66.572 59.11 63.852 57.6917 60.622 57.5383Z" fill="#0046B0"/>
</svg>
